<svg width="50" height="50" viewBox="0 0 50 50" fill="none" xmlns="http://www.w3.org/2000/svg">
<path d="M25 37.5001V10.4168M25 37.5001C25.0012 38.6392 25.236 39.7659 25.6897 40.8107C26.1434 41.8555 26.8065 42.7961 27.638 43.5746C28.4695 44.3531 29.4518 44.9528 30.5242 45.3368C31.5966 45.7208 32.7363 45.8808 33.873 45.8071C35.0097 45.7333 36.1191 45.4273 37.1329 44.9079C38.1467 44.3886 39.0432 43.6669 39.7671 42.7875C40.4911 41.9081 41.027 40.8896 41.3419 39.795C41.6568 38.7003 41.7439 37.5527 41.5979 36.423M25 37.5001C24.9988 38.6392 24.7641 39.7659 24.3104 40.8107C23.8566 41.8555 23.1935 42.7961 22.362 43.5746C21.5305 44.3531 20.5482 44.9528 19.4758 45.3368C18.4034 45.7208 17.2637 45.8808 16.1271 45.8071C14.9904 45.7333 13.8809 45.4273 12.8671 44.9079C11.8534 44.3886 10.9568 43.6669 10.2329 42.7875C9.50897 41.9081 8.97301 40.8896 8.65812 39.795C8.34323 38.7003 8.2561 37.5527 8.40211 36.423M25 10.4168C25 9.45808 25.2205 8.51222 25.6445 7.65238C26.0685 6.79254 26.6846 6.04176 27.4452 5.45812C28.2057 4.87449 29.0904 4.47365 30.0307 4.28661C30.9709 4.09957 31.9416 4.13134 32.8677 4.37947C33.7937 4.62761 34.6502 5.08544 35.371 5.71757C36.0918 6.34969 36.6575 7.13916 37.0243 8.02489C37.3912 8.91062 37.5494 9.86887 37.4866 10.8255C37.4239 11.7822 37.1419 12.7115 36.6625 13.5418M25 10.4168C25.0001 9.45808 24.7796 8.51222 24.3556 7.65238C23.9316 6.79254 23.3155 6.04176 22.5549 5.45812C21.7943 4.87449 20.9097 4.47365 19.9694 4.28661C19.0291 4.09957 18.0584 4.13134 17.1324 4.37947C16.2064 4.62761 15.3498 5.08544 14.629 5.71757C13.9083 6.34969 13.3426 7.13916 12.9757 8.02489C12.6089 8.91062 12.4507 9.86887 12.5134 10.8255C12.5762 11.7822 12.8581 12.7115 13.3375 13.5418M31.25 27.0834C29.4475 26.5565 27.8643 25.4598 26.7375 23.9574C25.6108 22.4551 25.0011 20.628 25 18.7501C24.9989 20.628 24.3893 22.4551 23.2625 23.9574C22.1358 25.4598 20.5525 26.5565 18.75 27.0834M37.4938 10.6772C38.7184 10.9921 39.8552 11.5815 40.8183 12.4008C41.7814 13.2201 42.5454 14.2478 43.0524 15.406C43.5595 16.5643 43.7964 17.8228 43.745 19.0862C43.6937 20.3496 43.3556 21.5847 42.7563 22.698M37.5 37.5001C39.3344 37.5 41.1175 36.8947 42.5728 35.778C44.0281 34.6612 45.0742 33.0955 45.549 31.3236C46.0238 29.5518 45.9007 27.6727 45.1987 25.978C44.4968 24.2832 43.2553 22.8674 41.6667 21.9501M12.5 37.5001C10.6656 37.5 8.88254 36.8947 7.42724 35.778C5.97195 34.6612 4.92579 33.0955 4.45101 31.3236C3.97624 29.5518 4.09936 27.6727 4.80131 25.978C5.50325 24.2832 6.74478 22.8674 8.33336 21.9501M12.5063 10.6772C11.2817 10.9921 10.1448 11.5815 9.18175 12.4008C8.21869 13.2201 7.45469 14.2478 6.94761 15.406C6.44054 16.5643 6.20369 17.8228 6.255 19.0862C6.30631 20.3496 6.64444 21.5847 7.24377 22.698" stroke="white" stroke-width="2" stroke-linecap="round" stroke-linejoin="round"/>
</svg>
