<svg width="50" height="50" viewBox="0 0 50 50" fill="none" xmlns="http://www.w3.org/2000/svg">
<path d="M43.75 10.4167C43.75 13.8685 35.3553 16.6667 25 16.6667C14.6447 16.6667 6.25 13.8685 6.25 10.4167M43.75 10.4167C43.75 6.96497 35.3553 4.16675 25 4.16675C14.6447 4.16675 6.25 6.96497 6.25 10.4167M43.75 10.4167V39.5834C43.75 41.241 41.7746 42.8307 38.2582 44.0028C34.7419 45.1749 29.9728 45.8334 25 45.8334C20.0272 45.8334 15.2581 45.1749 11.7417 44.0028C8.22544 42.8307 6.25 41.241 6.25 39.5834V10.4167M6.25 25.0001C6.25 26.6577 8.22544 28.2474 11.7417 29.4195C15.2581 30.5916 20.0272 31.2501 25 31.2501C29.9728 31.2501 34.7419 30.5916 38.2582 29.4195C41.7746 28.2474 43.75 26.6577 43.75 25.0001" stroke="white" stroke-width="2" stroke-linecap="round" stroke-linejoin="round"/>
</svg>
