<svg width="25" height="25" viewBox="0 0 25 25" fill="none" xmlns="http://www.w3.org/2000/svg">
<path d="M22.6563 12.4998C22.6531 14.982 21.7423 17.3774 20.0956 19.2348C18.4489 21.0922 16.1798 22.2833 13.7158 22.5838C13.661 22.59 13.6054 22.5845 13.5528 22.5677C13.5002 22.5509 13.4518 22.5231 13.4107 22.4862C13.3697 22.4492 13.3369 22.404 13.3146 22.3535C13.2923 22.303 13.2809 22.2484 13.2813 22.1932V14.8436H15.625C15.7321 14.8438 15.8381 14.822 15.9364 14.7795C16.0348 14.7371 16.1233 14.6749 16.1966 14.5967C16.2698 14.5186 16.3263 14.4263 16.3623 14.3254C16.3984 14.2246 16.4133 14.1174 16.4063 14.0105C16.389 13.8097 16.2963 13.6227 16.1468 13.4874C15.9974 13.3521 15.8022 13.2783 15.6006 13.2811H13.2813V10.9373C13.2813 10.5229 13.4459 10.1255 13.7389 9.83245C14.0319 9.53943 14.4294 9.37481 14.8438 9.37481H16.4063C16.5134 9.37504 16.6194 9.35325 16.7177 9.3108C16.816 9.26834 16.9046 9.20612 16.9778 9.128C17.0511 9.04988 17.1075 8.95753 17.1436 8.85669C17.1796 8.75585 17.1946 8.64866 17.1875 8.5418C17.1702 8.34056 17.0773 8.15337 16.9274 8.01798C16.7775 7.8826 16.5818 7.80909 16.3799 7.81231H14.8438C14.015 7.81231 13.2201 8.14155 12.634 8.7276C12.048 9.31365 11.7188 10.1085 11.7188 10.9373V13.2811H9.375C9.2679 13.2808 9.1619 13.3026 9.06357 13.3451C8.96525 13.3875 8.8767 13.4497 8.80344 13.5279C8.73017 13.606 8.67375 13.6983 8.63768 13.7992C8.60161 13.9 8.58666 14.0072 8.59375 14.1141C8.61103 14.3153 8.70399 14.5025 8.85388 14.6379C9.00376 14.7733 9.19942 14.8468 9.40137 14.8436H11.7188V22.1951C11.7191 22.2502 11.7078 22.3048 11.6855 22.3552C11.6632 22.4057 11.6305 22.4508 11.5896 22.4877C11.5486 22.5246 11.5003 22.5524 11.4479 22.5693C11.3954 22.5862 11.3399 22.5918 11.2852 22.5857C8.75523 22.2776 6.43317 21.031 4.77859 19.0924C3.12401 17.1539 2.25751 14.6649 2.35059 12.118C2.5459 6.84453 6.81738 2.55742 12.0947 2.35235C13.461 2.29942 14.824 2.52261 16.102 3.00856C17.3801 3.49451 18.547 4.23324 19.533 5.18057C20.5189 6.12789 21.3037 7.26434 21.8404 8.52195C22.377 9.77956 22.6545 11.1325 22.6563 12.4998Z" fill="#1A064F"/>
</svg>
