<svg width="20" height="20" viewBox="0 0 20 20" fill="none" xmlns="http://www.w3.org/2000/svg">
<path d="M18.125 10C18.1224 11.9858 17.3938 13.9021 16.0764 15.388C14.7591 16.8739 12.9438 17.8268 10.9726 18.0672C10.9287 18.0722 10.8843 18.0678 10.8422 18.0543C10.8001 18.0408 10.7614 18.0186 10.7286 17.9891C10.6957 17.9596 10.6695 17.9234 10.6516 17.883C10.6338 17.8426 10.6247 17.7989 10.625 17.7547V11.875H12.5C12.5856 11.8752 12.6704 11.8578 12.7491 11.8238C12.8278 11.7898 12.8986 11.74 12.9572 11.6776C13.0158 11.6151 13.061 11.5412 13.0898 11.4605C13.1187 11.3798 13.1306 11.2941 13.125 11.2086C13.1112 11.0479 13.037 10.8983 12.9174 10.7901C12.7979 10.6818 12.6417 10.6228 12.4804 10.625H10.625V8.75C10.625 8.41848 10.7567 8.10054 10.9911 7.86612C11.2255 7.6317 11.5434 7.5 11.875 7.5H13.125C13.2106 7.50019 13.2954 7.48276 13.3741 7.44879C13.4528 7.41483 13.5236 7.36505 13.5822 7.30255C13.6408 7.24006 13.686 7.16618 13.7148 7.08551C13.7437 7.00483 13.7556 6.91909 13.75 6.83359C13.7361 6.6726 13.6618 6.52285 13.5419 6.41454C13.422 6.30623 13.2654 6.24743 13.1039 6.25H11.875C11.2119 6.25 10.576 6.51339 10.1072 6.98223C9.63836 7.45107 9.37496 8.08696 9.37496 8.75V10.625H7.49996C7.41429 10.6248 7.32948 10.6422 7.25082 10.6762C7.17216 10.7102 7.10133 10.76 7.04271 10.8224C6.9841 10.8849 6.93897 10.9588 6.91011 11.0395C6.88125 11.1202 6.86929 11.2059 6.87497 11.2914C6.88879 11.4524 6.96316 11.6022 7.08306 11.7105C7.20297 11.8188 7.3595 11.8776 7.52106 11.875H9.37496V17.7562C9.37523 17.8003 9.36616 17.844 9.34836 17.8843C9.33055 17.9247 9.3044 17.9608 9.27164 17.9903C9.23887 18.0198 9.20023 18.0421 9.15826 18.0556C9.11628 18.0691 9.07192 18.0736 9.02809 18.0687C7.00415 17.8223 5.1465 16.8249 3.82283 15.2741C2.49917 13.7233 1.80597 11.7321 1.88043 9.69453C2.03668 5.47578 5.45387 2.04609 9.67575 1.88203C10.7688 1.83969 11.8591 2.01824 12.8816 2.407C13.904 2.79576 14.8376 3.38675 15.6263 4.14461C16.4151 4.90246 17.0429 5.81163 17.4723 6.81771C17.9016 7.8238 18.1236 8.90614 18.125 10Z" fill="white"/>
</svg>
