<svg width="25" height="25" viewBox="0 0 25 25" fill="none" xmlns="http://www.w3.org/2000/svg">
<path d="M20.9961 21.4697C20.9288 21.5923 20.8299 21.6945 20.7097 21.7658C20.5895 21.8371 20.4523 21.8748 20.3125 21.875H15.625C15.4935 21.875 15.3642 21.8417 15.249 21.7784C15.1337 21.7151 15.0363 21.6237 14.9658 21.5127L11.0117 15.2988L5.26564 21.6191C5.12556 21.7696 4.93182 21.8588 4.72643 21.8674C4.52103 21.876 4.32052 21.8032 4.16838 21.665C4.01625 21.5267 3.92474 21.3341 3.91369 21.1288C3.90265 20.9235 3.97296 20.7221 4.10939 20.5684L10.1416 13.9277L4.02833 4.32617C3.95304 4.20805 3.91089 4.07186 3.9063 3.93186C3.90171 3.79185 3.93485 3.65319 4.00224 3.53039C4.06963 3.40759 4.1688 3.30517 4.28936 3.23385C4.40992 3.16253 4.54744 3.12493 4.68751 3.125H9.37501C9.5065 3.12504 9.63585 3.15827 9.75108 3.2216C9.8663 3.28493 9.96368 3.37632 10.0342 3.4873L13.9883 9.70117L19.7344 3.38086C19.8745 3.23039 20.0682 3.14119 20.2736 3.13261C20.479 3.12403 20.6795 3.19675 20.8316 3.33502C20.9838 3.47328 21.0753 3.66593 21.0863 3.87121C21.0974 4.07649 21.0271 4.27786 20.8906 4.43164L14.8584 11.0674L20.9717 20.6748C21.0466 20.793 21.0883 20.9291 21.0926 21.0689C21.0969 21.2088 21.0636 21.3472 20.9961 21.4697Z" fill="#1A064F"/>
</svg>
