<svg width="59" height="54" viewBox="0 0 59 54" fill="none" xmlns="http://www.w3.org/2000/svg">
<path d="M56.9199 1C57.1863 1.00008 57.3729 1.08042 57.4795 1.24023C57.6394 1.40022 57.5859 1.61327 57.3193 1.87988L39.8799 22.4404L58.8398 52.5195C58.9998 52.7329 59.0266 52.9468 58.9199 53.1602C58.8665 53.32 58.706 53.4004 58.4395 53.4004H52.1992C51.8263 53.4002 51.5325 53.2397 51.3193 52.9199L35.3994 27.5596L32.291 31.0967C31.9373 30.4141 31.5218 29.7811 31.04 29.2002C30.3307 28.324 29.49 27.5673 28.5195 26.9277V26.8828C29.48 25.6246 30.4389 24.3826 31.3994 23.1602C32.626 21.6669 33.8793 20.1462 35.1592 18.5996L49.7197 1.40039C49.933 1.13383 50.2265 1.00011 50.5996 1H56.9199ZM14.2402 0C25.8134 5.85021e-05 31.5996 4.34676 31.5996 13.04C31.5996 15.9734 30.9062 18.3736 29.5195 20.2402C28.1862 22.0534 26.0264 23.5197 23.04 24.6396V24.7998C25.1832 25.2219 27.009 25.9323 28.5195 26.9277V35.3916L32.291 31.0967C33.2688 32.9833 33.7598 35.2569 33.7598 37.9199C33.7598 42.8265 32.2134 46.4799 29.1201 48.8799C26.0269 51.2265 21.1469 52.4003 14.4805 52.4004H0.719727C0.239909 52.4003 0 52.1596 0 51.6797V0.719727C9.0891e-05 0.24 0.24 9.13678e-05 0.719727 0H14.2402ZM6.40039 46.7998H14.4004C18.9869 46.7998 22.2937 46.0529 24.3203 44.5596C26.3466 43.0663 27.3603 40.6933 27.3604 37.4404C27.3604 34.1339 26.3468 31.7336 24.3203 30.2402C22.2936 28.6936 19.1465 27.9199 14.8799 27.9199H6.40039V46.7998ZM6.40039 22.7197H14.4004C18.0269 22.7197 20.7205 21.9995 22.4805 20.5596C24.2935 19.0662 25.2002 16.853 25.2002 13.9199C25.2002 10.9333 24.2937 8.79953 22.4805 7.51953C20.6671 6.1862 17.6795 5.51953 13.5195 5.51953H6.40039V22.7197Z" fill="white"/>
</svg>
